<mxfile host="app.diagrams.net" agent="Mozilla/5.0 (Windows NT 10.0; Win64; x64) AppleWebKit/537.36 (KHTML, like Gecko) Chrome/140.0.0.0 Safari/537.36" version="28.2.3">
  <diagram name="Page-1" id="C-g2fz7T9Bdr24j7kvVt">
    <mxGraphModel dx="1106" dy="563" grid="1" gridSize="10" guides="1" tooltips="1" connect="1" arrows="1" fold="1" page="1" pageScale="1" pageWidth="850" pageHeight="1100" math="0" shadow="0">
      <root>
        <mxCell id="0" />
        <mxCell id="1" parent="0" />
        <mxCell id="XTB2MI85HImV3HZ4bywO-18" style="edgeStyle=orthogonalEdgeStyle;rounded=0;orthogonalLoop=1;jettySize=auto;html=1;exitX=0.5;exitY=1;exitDx=0;exitDy=0;entryX=0.5;entryY=0;entryDx=0;entryDy=0;" edge="1" parent="1" source="XTB2MI85HImV3HZ4bywO-2" target="XTB2MI85HImV3HZ4bywO-17">
          <mxGeometry relative="1" as="geometry" />
        </mxCell>
        <mxCell id="XTB2MI85HImV3HZ4bywO-24" style="edgeStyle=orthogonalEdgeStyle;rounded=0;orthogonalLoop=1;jettySize=auto;html=1;exitX=1;exitY=0.5;exitDx=0;exitDy=0;" edge="1" parent="1" source="XTB2MI85HImV3HZ4bywO-2" target="XTB2MI85HImV3HZ4bywO-22">
          <mxGeometry relative="1" as="geometry" />
        </mxCell>
        <mxCell id="XTB2MI85HImV3HZ4bywO-25" style="edgeStyle=orthogonalEdgeStyle;rounded=0;orthogonalLoop=1;jettySize=auto;html=1;exitX=0;exitY=0.5;exitDx=0;exitDy=0;entryX=0.5;entryY=0;entryDx=0;entryDy=0;" edge="1" parent="1" source="XTB2MI85HImV3HZ4bywO-2" target="XTB2MI85HImV3HZ4bywO-3">
          <mxGeometry relative="1" as="geometry" />
        </mxCell>
        <mxCell id="XTB2MI85HImV3HZ4bywO-30" style="edgeStyle=orthogonalEdgeStyle;rounded=0;orthogonalLoop=1;jettySize=auto;html=1;" edge="1" parent="1" source="XTB2MI85HImV3HZ4bywO-2" target="XTB2MI85HImV3HZ4bywO-28">
          <mxGeometry relative="1" as="geometry" />
        </mxCell>
        <mxCell id="XTB2MI85HImV3HZ4bywO-2" value="Alien Invaders" style="rounded=0;whiteSpace=wrap;html=1;" vertex="1" parent="1">
          <mxGeometry x="360" y="40" width="120" height="60" as="geometry" />
        </mxCell>
        <mxCell id="XTB2MI85HImV3HZ4bywO-15" style="edgeStyle=orthogonalEdgeStyle;rounded=0;orthogonalLoop=1;jettySize=auto;html=1;" edge="1" parent="1" source="XTB2MI85HImV3HZ4bywO-3" target="XTB2MI85HImV3HZ4bywO-11">
          <mxGeometry relative="1" as="geometry" />
        </mxCell>
        <mxCell id="XTB2MI85HImV3HZ4bywO-3" value="Game Menu" style="rounded=0;whiteSpace=wrap;html=1;labelBackgroundColor=none;labelBorderColor=none;" vertex="1" parent="1">
          <mxGeometry x="120" y="120" width="120" height="60" as="geometry" />
        </mxCell>
        <mxCell id="XTB2MI85HImV3HZ4bywO-6" value="Play Button" style="rounded=0;whiteSpace=wrap;html=1;" vertex="1" parent="1">
          <mxGeometry y="240" width="120" height="60" as="geometry" />
        </mxCell>
        <mxCell id="XTB2MI85HImV3HZ4bywO-34" style="edgeStyle=orthogonalEdgeStyle;rounded=0;orthogonalLoop=1;jettySize=auto;html=1;exitX=0.5;exitY=1;exitDx=0;exitDy=0;entryX=0.5;entryY=0;entryDx=0;entryDy=0;" edge="1" parent="1" source="XTB2MI85HImV3HZ4bywO-11" target="XTB2MI85HImV3HZ4bywO-33">
          <mxGeometry relative="1" as="geometry" />
        </mxCell>
        <mxCell id="XTB2MI85HImV3HZ4bywO-11" value="Score" style="rounded=0;whiteSpace=wrap;html=1;" vertex="1" parent="1">
          <mxGeometry x="160" y="240" width="120" height="60" as="geometry" />
        </mxCell>
        <mxCell id="XTB2MI85HImV3HZ4bywO-16" style="edgeStyle=orthogonalEdgeStyle;rounded=0;orthogonalLoop=1;jettySize=auto;html=1;exitX=0;exitY=0.5;exitDx=0;exitDy=0;entryX=0.333;entryY=-0.067;entryDx=0;entryDy=0;entryPerimeter=0;" edge="1" parent="1" source="XTB2MI85HImV3HZ4bywO-3" target="XTB2MI85HImV3HZ4bywO-6">
          <mxGeometry relative="1" as="geometry" />
        </mxCell>
        <mxCell id="XTB2MI85HImV3HZ4bywO-21" style="edgeStyle=orthogonalEdgeStyle;rounded=0;orthogonalLoop=1;jettySize=auto;html=1;entryX=0.5;entryY=0;entryDx=0;entryDy=0;" edge="1" parent="1" source="XTB2MI85HImV3HZ4bywO-17">
          <mxGeometry relative="1" as="geometry">
            <mxPoint x="380" y="280" as="targetPoint" />
          </mxGeometry>
        </mxCell>
        <mxCell id="XTB2MI85HImV3HZ4bywO-17" value="Player" style="rounded=0;whiteSpace=wrap;html=1;" vertex="1" parent="1">
          <mxGeometry x="320" y="160" width="120" height="60" as="geometry" />
        </mxCell>
        <mxCell id="XTB2MI85HImV3HZ4bywO-27" style="edgeStyle=orthogonalEdgeStyle;rounded=0;orthogonalLoop=1;jettySize=auto;html=1;exitX=0.5;exitY=1;exitDx=0;exitDy=0;entryX=0.5;entryY=0;entryDx=0;entryDy=0;" edge="1" parent="1" source="XTB2MI85HImV3HZ4bywO-22" target="XTB2MI85HImV3HZ4bywO-26">
          <mxGeometry relative="1" as="geometry" />
        </mxCell>
        <mxCell id="XTB2MI85HImV3HZ4bywO-22" value="Enemies" style="rounded=0;whiteSpace=wrap;html=1;" vertex="1" parent="1">
          <mxGeometry x="520" y="160" width="120" height="60" as="geometry" />
        </mxCell>
        <mxCell id="XTB2MI85HImV3HZ4bywO-36" style="edgeStyle=orthogonalEdgeStyle;rounded=0;orthogonalLoop=1;jettySize=auto;html=1;exitX=1;exitY=0.5;exitDx=0;exitDy=0;entryX=0.5;entryY=0;entryDx=0;entryDy=0;" edge="1" parent="1" source="XTB2MI85HImV3HZ4bywO-26" target="XTB2MI85HImV3HZ4bywO-35">
          <mxGeometry relative="1" as="geometry" />
        </mxCell>
        <mxCell id="XTB2MI85HImV3HZ4bywO-26" value="Enemy type" style="rounded=0;whiteSpace=wrap;html=1;" vertex="1" parent="1">
          <mxGeometry x="520" y="280" width="120" height="60" as="geometry" />
        </mxCell>
        <mxCell id="XTB2MI85HImV3HZ4bywO-32" style="edgeStyle=orthogonalEdgeStyle;rounded=0;orthogonalLoop=1;jettySize=auto;html=1;" edge="1" parent="1" source="XTB2MI85HImV3HZ4bywO-28" target="XTB2MI85HImV3HZ4bywO-31">
          <mxGeometry relative="1" as="geometry" />
        </mxCell>
        <mxCell id="XTB2MI85HImV3HZ4bywO-28" value="Barrier" style="rounded=0;whiteSpace=wrap;html=1;" vertex="1" parent="1">
          <mxGeometry x="720" y="120" width="120" height="60" as="geometry" />
        </mxCell>
        <mxCell id="XTB2MI85HImV3HZ4bywO-31" value="Barrier decay" style="rounded=0;whiteSpace=wrap;html=1;" vertex="1" parent="1">
          <mxGeometry x="720" y="240" width="120" height="60" as="geometry" />
        </mxCell>
        <mxCell id="XTB2MI85HImV3HZ4bywO-33" value="High Score" style="rounded=0;whiteSpace=wrap;html=1;" vertex="1" parent="1">
          <mxGeometry x="160" y="360" width="120" height="60" as="geometry" />
        </mxCell>
        <mxCell id="XTB2MI85HImV3HZ4bywO-35" value="Enemy Projectiles" style="rounded=0;whiteSpace=wrap;html=1;" vertex="1" parent="1">
          <mxGeometry x="720" y="360" width="120" height="60" as="geometry" />
        </mxCell>
      </root>
    </mxGraphModel>
  </diagram>
</mxfile>
